<svg width="64" height="19" viewBox="0 0 64 19" fill="none" xmlns="http://www.w3.org/2000/svg">
<path d="M25.2188 12.1797L27.7969 3.625H30.4062L26.4453 15H24L20.0547 3.625H22.6562L25.2188 12.1797ZM30.625 10.6953C30.625 9.85677 30.7865 9.10938 31.1094 8.45312C31.4323 7.79688 31.8958 7.28906 32.5 6.92969C33.1094 6.57031 33.8151 6.39062 34.6172 6.39062C35.7578 6.39062 36.6875 6.73958 37.4062 7.4375C38.1302 8.13542 38.5339 9.08333 38.6172 10.2812L38.6328 10.8594C38.6328 12.1562 38.2708 13.1979 37.5469 13.9844C36.8229 14.7656 35.8516 15.1562 34.6328 15.1562C33.4141 15.1562 32.4401 14.7656 31.7109 13.9844C30.987 13.2031 30.625 12.1406 30.625 10.7969V10.6953ZM32.8828 10.8594C32.8828 11.6615 33.0339 12.276 33.3359 12.7031C33.638 13.125 34.0703 13.3359 34.6328 13.3359C35.1797 13.3359 35.6068 13.1276 35.9141 12.7109C36.2214 12.2891 36.375 11.6172 36.375 10.6953C36.375 9.90885 36.2214 9.29948 35.9141 8.86719C35.6068 8.4349 35.1745 8.21875 34.6172 8.21875C34.0651 8.21875 33.638 8.4349 33.3359 8.86719C33.0339 9.29427 32.8828 9.95833 32.8828 10.8594ZM42.4062 15H40.1406V3H42.4062V15ZM46.9766 4.46875V6.54688H48.4219V8.20312H46.9766V12.4219C46.9766 12.7344 47.0365 12.9583 47.1562 13.0938C47.276 13.2292 47.5052 13.2969 47.8438 13.2969C48.0938 13.2969 48.3151 13.2786 48.5078 13.2422V14.9531C48.0651 15.0885 47.6094 15.1562 47.1406 15.1562C45.5573 15.1562 44.75 14.3568 44.7188 12.7578V8.20312H43.4844V6.54688H44.7188V4.46875H46.9766ZM54.5781 15C54.474 14.7969 54.3984 14.5443 54.3516 14.2422C53.8047 14.8516 53.0938 15.1562 52.2188 15.1562C51.3906 15.1562 50.7031 14.9167 50.1562 14.4375C49.6146 13.9583 49.3438 13.3542 49.3438 12.625C49.3438 11.7292 49.6745 11.0417 50.3359 10.5625C51.0026 10.0833 51.9635 9.84115 53.2188 9.83594H54.2578V9.35156C54.2578 8.96094 54.1562 8.64844 53.9531 8.41406C53.7552 8.17969 53.4401 8.0625 53.0078 8.0625C52.6276 8.0625 52.3281 8.15365 52.1094 8.33594C51.8958 8.51823 51.7891 8.76823 51.7891 9.08594H49.5312C49.5312 8.59635 49.6823 8.14323 49.9844 7.72656C50.2865 7.3099 50.7135 6.98438 51.2656 6.75C51.8177 6.51042 52.4375 6.39062 53.125 6.39062C54.1667 6.39062 54.9922 6.65365 55.6016 7.17969C56.2161 7.70052 56.5234 8.4349 56.5234 9.38281V13.0469C56.5286 13.849 56.6406 14.4557 56.8594 14.8672V15H54.5781ZM52.7109 13.4297C53.0443 13.4297 53.3516 13.3568 53.6328 13.2109C53.9141 13.0599 54.1224 12.8594 54.2578 12.6094V11.1562H53.4141C52.2839 11.1562 51.6823 11.5469 51.6094 12.3281L51.6016 12.4609C51.6016 12.7422 51.7005 12.974 51.8984 13.1562C52.0964 13.3385 52.3672 13.4297 52.7109 13.4297ZM63.0078 8.66406C62.7005 8.6224 62.4297 8.60156 62.1953 8.60156C61.3411 8.60156 60.7812 8.89062 60.5156 9.46875V15H58.2578V6.54688H60.3906L60.4531 7.55469C60.9062 6.77865 61.5339 6.39062 62.3359 6.39062C62.5859 6.39062 62.8203 6.42448 63.0391 6.49219L63.0078 8.66406Z" fill="#A8A8B3"/>
<path d="M8 14.5L3 10L8 5.5L6.60066 4L6.67556e-07 10L6.60066 16L8 14.5Z" fill="#A8A8B3"/>
</svg>
